<svg id="visual" viewBox="0 0 900 600" width="900" height="600" xmlns="http://www.w3.org/2000/svg" xmlns:xlink="http://www.w3.org/1999/xlink" version="1.1"><rect x="0" y="0" width="900" height="600" fill="#4723d9"></rect><g transform="translate(441.5732326804475 307.12646091277077)"><path d="M106.8 -161C146.2 -140.9 191.4 -124.4 214.6 -92.5C237.8 -60.5 239.2 -12.9 236 36.5C232.9 85.9 225.3 137.3 196.5 169.9C167.6 202.5 117.6 216.4 70.8 220.8C24 225.2 -19.5 220 -61.7 208.4C-103.8 196.8 -144.5 178.6 -164.9 147.2C-185.3 115.9 -185.5 71.3 -195.1 26C-204.7 -19.2 -223.8 -65 -219.9 -111.6C-216 -158.1 -189.1 -205.2 -148.6 -224.9C-108.1 -244.6 -54.1 -236.8 -10.2 -220.9C33.7 -205.1 67.4 -181.2 106.8 -161" fill="#684bda"></path></g></svg>