<svg xmlns="http://www.w3.org/2000/svg" height="1200" width="1600" version="1.1" xmlns:xlink="http://www.w3.org/1999/xlink" xmlns:svgjs="http://svgjs.com/svgjs"><rect fill="#ffffff" width="1600" height="1200"></rect><g><path d="M635.49 250.85H1089.71C1102.69 250.85 1113.32 261.37 1113.32 274.46V622.37C1113.32 635.35 1102.8 645.98 1089.71 645.98H635.49C622.51 645.98 611.88 635.46 611.88 622.37V274.46C611.88 261.37 622.4 250.85 635.49 250.85Z" fill="#f6884d" opacity="1" stroke-width="4" stroke="none"></path><path d="M611.88 347.08H1112.09" stroke="#baafa9" stroke-width="4" stroke-linecap="round" stroke-linejoin="round" opacity="1" fill="none"></path></g><g><path d="M375.53 179.99H695.49C714.32 179.99 729.62 195.28 729.62 214.12V482.07H341.4V214.12C341.4 195.28 356.69 179.99 375.53 179.99Z" fill="#843b0b" opacity="1" stroke-width="4" stroke="none"></path><path d="M383.94 227.79C389.48 227.79 393.98 223.29 393.98 217.75 393.98 212.2 389.48 207.71 383.94 207.71 378.39 207.71 373.9 212.2 373.9 217.75 373.9 223.29 378.39 227.79 383.94 227.79Z" fill="#747474" opacity="1" stroke-width="4" stroke="none"></path><path d="M418.35 227.79C423.9 227.79 428.39 223.29 428.39 217.75 428.39 212.2 423.9 207.71 418.35 207.71 412.81 207.71 408.32 212.2 408.32 217.75 408.32 223.29 412.81 227.79 418.35 227.79Z" fill="#747474" opacity="1" stroke-width="4" stroke="none"></path><path d="M452.77 227.79C458.31 227.79 462.81 223.29 462.81 217.75 462.81 212.2 458.31 207.71 452.77 207.71 447.22 207.71 442.73 212.2 442.73 217.75 442.73 223.29 447.22 227.79 452.77 227.79Z" fill="#747474" opacity="1" stroke-width="4" stroke="none"></path><path d="M340.44 254.55H729.52" stroke="#747474" stroke-width="4" stroke-linecap="round" stroke-linejoin="round" opacity="1" fill="none"></path></g><g><path d="M492.9 375.41H428.74L478.28 315.67V420.31" stroke="#efdcd7" stroke-width="4" stroke-linecap="round" stroke-linejoin="round" opacity="1" fill="none"></path><path d="M646.15 375.41H581.88L631.53 315.67V420.31" stroke="#efdcd7" stroke-width="4" stroke-linecap="round" stroke-linejoin="round" opacity="1" fill="none"></path><path d="M532.46 315.67H543.83C556.01 315.67 565.87 325.53 565.87 337.71V397.22C565.87 409.41 556.01 419.27 543.83 419.27H532.46C520.28 419.27 510.41 409.41 510.41 397.22V337.71C510.41 325.53 520.28 315.67 532.46 315.67Z" stroke="#efdcd7" stroke-width="4" stroke-linecap="round" stroke-linejoin="round" opacity="1" fill="none"></path></g><g><path d="M1389.17 379.86H1131.93V680.84H1389.17V379.86Z" fill="#efdcd7" opacity="1" stroke-width="4" stroke="none"></path><path d="M1181.23 435.6H1234.4C1238.86 435.6 1242.54 439.29 1242.54 443.74 1242.54 448.2 1238.86 451.89 1234.4 451.89H1181.23C1176.77 451.89 1173.09 448.2 1173.09 443.74 1173.09 439.29 1176.77 435.6 1181.23 435.6Z" fill="#f6884d" opacity="1" stroke-width="4" stroke="none"></path><path d="M1266.98 435.6H1285.84C1290.3 435.6 1293.99 439.29 1293.99 443.74 1293.99 448.2 1290.3 451.89 1285.84 451.89H1266.98C1262.52 451.89 1258.83 448.2 1258.83 443.74 1258.83 439.29 1262.52 435.6 1266.98 435.6Z" fill="#843b0b" opacity="1" stroke-width="4" stroke="none"></path><path d="M1317.57 435.6H1336.44C1340.89 435.6 1344.58 439.29 1344.58 443.74 1344.58 448.2 1340.89 451.89 1336.44 451.89H1317.57C1313.11 451.89 1309.43 448.2 1309.43 443.74 1309.43 439.29 1313.11 435.6 1317.57 435.6Z" fill="#ffc930" opacity="1" stroke-width="4" stroke="none"></path><path d="M1181.23 565.51H1234.4C1238.86 565.51 1242.54 569.19 1242.54 573.65 1242.54 578.11 1238.86 581.8 1234.4 581.8H1181.23C1176.77 581.8 1173.09 578.11 1173.09 573.65 1173.09 569.19 1176.77 565.51 1181.23 565.51Z" fill="#ffc930" opacity="1" stroke-width="4" stroke="none"></path><path d="M1266.98 565.51H1336.44C1340.89 565.51 1344.58 569.19 1344.58 573.65 1344.58 578.11 1340.89 581.8 1336.44 581.8H1266.98C1262.52 581.8 1258.83 578.11 1258.83 573.65 1258.83 569.19 1262.52 565.51 1266.98 565.51Z" fill="#ffffff" opacity="1" stroke-width="4" stroke="none"></path><path d="M1181.23 522.2H1263.55C1268.01 522.2 1271.7 525.89 1271.7 530.35 1271.7 534.81 1268.01 538.5 1263.55 538.5H1181.23C1176.77 538.5 1173.09 534.81 1173.09 530.35 1173.09 525.89 1176.77 522.2 1181.23 522.2Z" fill="#843b0b" opacity="1" stroke-width="4" stroke="none"></path><path d="M1232.68 478.9H1285.84C1290.3 478.9 1293.99 482.59 1293.99 487.05 1293.99 491.51 1290.3 495.19 1285.84 495.19H1232.68C1228.22 495.19 1224.54 491.51 1224.54 487.05 1224.54 482.59 1228.22 478.9 1232.68 478.9Z" fill="#ffffff" opacity="1" stroke-width="4" stroke="none"></path><path d="M1181.23 478.9H1200.1C1204.56 478.9 1208.24 482.59 1208.24 487.05 1208.24 491.51 1204.56 495.19 1200.1 495.19H1181.23C1176.77 495.19 1173.09 491.51 1173.09 487.05 1173.09 482.59 1176.77 478.9 1181.23 478.9Z" fill="#ffc930" opacity="1" stroke-width="4" stroke="none"></path><path d="M1317.57 478.9H1336.44C1340.89 478.9 1344.58 482.59 1344.58 487.05 1344.58 491.51 1340.89 495.19 1336.44 495.19H1317.57C1313.11 495.19 1309.43 491.51 1309.43 487.05 1309.43 482.59 1313.11 478.9 1317.57 478.9Z" fill="#ffffff" opacity="1" stroke-width="4" stroke="none"></path><path d="M1232.68 608.81H1336.44C1340.89 608.81 1344.58 612.5 1344.58 616.95 1344.58 621.41 1340.89 625.1 1336.44 625.1H1232.68C1228.22 625.1 1224.54 621.41 1224.54 616.95 1224.54 612.5 1228.22 608.81 1232.68 608.81Z" fill="#f6884d" opacity="1" stroke-width="4" stroke="none"></path><path d="M1181.23 608.81H1200.1C1204.56 608.81 1208.24 612.5 1208.24 616.95 1208.24 621.41 1204.56 625.1 1200.1 625.1H1181.23C1176.77 625.1 1173.09 621.41 1173.09 616.95 1173.09 612.5 1176.77 608.81 1181.23 608.81Z" fill="#843b0b" opacity="1" stroke-width="4" stroke="none"></path></g><g><path d="M547.45 614.61L498.7 587.68 526.5 536.77C527.04 535.79 526.82 534.71 525.95 534.05 525.09 533.4 523.89 533.4 523.13 534.16L480.79 572.38 450.07 523.31C449.53 522.44 448.33 522 447.36 522.44 446.38 522.87 445.84 523.85 446.05 524.93L458.65 580.41 410.99 578.67C410.01 578.67 409.03 579.32 408.82 580.3 408.6 581.28 409.03 582.36 410.01 582.8L455.28 603.53 435.09 654.56C434.65 655.53 435.09 656.62 435.96 657.16 436.83 657.7 438.02 657.6 438.67 656.73L472.98 618.95 496.86 661.83C497.29 662.48 497.94 662.92 498.7 662.92 498.92 662.92 499.14 662.92 499.36 662.81 500.33 662.48 500.98 661.5 500.88 660.53L494.69 610.92 545.82 618.73C546.91 618.84 547.88 618.3 548.21 617.32 548.75 616.23 548.32 615.15 547.45 614.61Z" fill="#ffc930" opacity="1" stroke-width="4" stroke="none"></path></g><g><path d="M1133.1 154.2L1152.48 198 1189.77 168.22C1190.66 167.57 1191.8 167.54 1192.65 168.27 1193.5 169 1193.66 170.22 1193.07 171.16L1167.05 213.34 1216.2 238.25C1217.11 238.73 1217.6 239.89 1217.36 240.86 1217.01 241.86 1216.02 242.54 1214.96 242.43L1161.93 236.44 1166.83 288.21C1166.97 289.33 1166.27 290.29 1165.18 290.54 1164.09 290.78 1163.04 290.21 1162.6 289.28L1140.99 239.09 1102.82 271.13C1101.94 271.79 1100.8 271.82 1099.95 271.09 1099.1 270.36 1098.94 269.13 1099.53 268.2L1126.59 223.48 1076.92 193.75C1076.39 193.41 1076.05 192.91 1075.9 192.26 1075.8 191.82 1075.81 191.36 1076.06 190.96 1076.52 189.93 1077.54 189.36 1078.64 189.69L1132.27 202.9 1129.09 155.22C1128.96 154.1 1129.77 153.12 1130.75 152.9 1131.51 152.72 1132.66 153.27 1133.1 154.2Z" fill="#efdcd7" opacity="1" stroke-width="4" stroke="none"></path></g><g><path d="M1202.52 788.58C1218.02 788.58 1230.58 776.02 1230.58 760.52 1230.58 745.02 1218.02 732.46 1202.52 732.46 1187.02 732.46 1174.46 745.02 1174.46 760.52 1174.46 776.02 1187.02 788.58 1202.52 788.58Z" fill="#ffffff" opacity="1" stroke-width="4" stroke="none"></path></g><g><path d="M238.85 645.97C248.33 645.97 256.02 638.29 256.02 628.81 256.02 619.33 248.33 611.65 238.85 611.65 229.38 611.65 221.69 619.33 221.69 628.81 221.69 638.29 229.38 645.97 238.85 645.97Z" fill="#ffffff" opacity="1" stroke-width="4" stroke="none"></path></g><g><path d="M597.21 760.71C616.65 760.71 632.4 744.96 632.4 725.52 632.4 706.08 616.65 690.33 597.21 690.33 577.78 690.33 562.03 706.08 562.03 725.52 562.03 744.96 577.78 760.71 597.21 760.71Z" fill="#ffffff" opacity="1" stroke-width="4" stroke="none"></path></g><g><path d="M277.94 341.53C290.14 341.53 300.03 331.64 300.03 319.44 300.03 307.25 290.14 297.36 277.94 297.36 265.74 297.36 255.85 307.25 255.85 319.44 255.85 331.64 265.74 341.53 277.94 341.53Z" fill="#f6884d" opacity="1" stroke-width="4" stroke="none"></path></g><g><path d="M1331.18 843.59C1341.31 843.59 1349.52 835.38 1349.52 825.25 1349.52 815.12 1341.31 806.9 1331.18 806.9 1321.05 806.9 1312.84 815.12 1312.84 825.25 1312.84 835.38 1321.05 843.59 1331.18 843.59Z" fill="#843b0b" opacity="1" stroke-width="4" stroke="none"></path></g><g><path d="M300.03 871.27C314.58 871.27 326.36 859.48 326.36 844.93 326.36 830.38 314.58 818.6 300.03 818.6 285.48 818.6 273.69 830.38 273.69 844.93 273.69 859.48 285.48 871.27 300.03 871.27Z" fill="#843b0b" opacity="1" stroke-width="4" stroke="none"></path></g><g><path d="M1333.94 283.07C1345.41 283.07 1354.7 273.78 1354.7 262.31 1354.7 250.84 1345.41 241.55 1333.94 241.55 1322.47 241.55 1313.18 250.84 1313.18 262.31 1313.18 273.78 1322.47 283.07 1333.94 283.07Z" fill="#f6884d" opacity="1" stroke-width="4" stroke="none"></path></g><g><path d="M595.11 197.2C606.72 197.2 616.12 187.8 616.12 176.19 616.12 164.59 606.72 155.18 595.11 155.18 583.5 155.18 574.1 164.59 574.1 176.19 574.1 187.8 583.5 197.2 595.11 197.2Z" fill="#efdcd7" opacity="1" stroke-width="4" stroke="none"></path></g><g><path d="M997.29 902.35C1020.32 903.45 1045.09 903.67 1095.95 876.04 1184.75 827.81 1228.93 820.79 1235.17 843.15 1240.66 862.89 1193.52 893.58 1173.79 913.31 1132.02 955.08 1142.43 983.58 1190.23 975.8 1237.37 968.12 1265.87 940.72 1305.33 980.18" stroke="#231f20" stroke-width="4" stroke-linecap="round" stroke-linejoin="round" opacity="1" fill="none"></path></g><g><path d="M141.23 725.03C167.19 710.32 195.83 687.39 217.37 710.32 230.35 724.16 231.21 756.18 267.55 748.39 303.89 740.6 351.48 693.88 392.14 699.94 436.96 706.6 428.48 792.51 391.28 812.41 351.04 833.96 343.69 750.12 458.76 744.06" stroke="#231f20" stroke-width="4" stroke-linecap="round" stroke-linejoin="round" opacity="1" fill="none"></path><path d="M484.72 718.98H512.4V769.16H484.72C470.87 769.16 459.63 757.92 459.63 744.07 459.63 730.23 470.87 718.98 484.72 718.98Z" fill="#231f20" opacity="1" stroke-width="4" stroke="none"></path><path d="M509.81 734.55H531.44" stroke="#231f20" stroke-width="4" stroke-linecap="round" stroke-linejoin="round" opacity="1" fill="none"></path><path d="M509.81 753.59H531.44" stroke="#231f20" stroke-width="4" stroke-linecap="round" stroke-linejoin="round" opacity="1" fill="none"></path><path d="M512.4 715.52V772.62" stroke="#231f20" stroke-width="4" stroke-linecap="round" stroke-linejoin="round" opacity="1" fill="none"></path></g><g><path d="M741.1 421.69V439.32" stroke="#ffffff" stroke-width="4" stroke-linecap="round" stroke-linejoin="round" opacity="1" fill="none"></path><path d="M741.1 489.37V507" stroke="#ffffff" stroke-width="4" stroke-linecap="round" stroke-linejoin="round" opacity="1" fill="none"></path><path d="M783.76 464.34H766.13" stroke="#ffffff" stroke-width="4" stroke-linecap="round" stroke-linejoin="round" opacity="1" fill="none"></path><path d="M716.08 464.34H698.45" stroke="#ffffff" stroke-width="4" stroke-linecap="round" stroke-linejoin="round" opacity="1" fill="none"></path><path d="M710.96 434.2L723.38 446.62" stroke="#ffffff" stroke-width="4" stroke-linecap="round" stroke-linejoin="round" opacity="1" fill="none"></path><path d="M758.83 482.07L771.25 494.49" stroke="#ffffff" stroke-width="4" stroke-linecap="round" stroke-linejoin="round" opacity="1" fill="none"></path><path d="M771.25 434.2L758.83 446.62" stroke="#ffffff" stroke-width="4" stroke-linecap="round" stroke-linejoin="round" opacity="1" fill="none"></path><path d="M723.38 482.07L710.96 494.49" stroke="#ffffff" stroke-width="4" stroke-linecap="round" stroke-linejoin="round" opacity="1" fill="none"></path></g><g><path d="M898.53 186.24C876.59 217.89 833.53 282.09 765.61 307.42 697.69 332.76 674.21 302 698.66 270.27 724.57 236.67 805.19 207.85 858.54 205.51 911.89 203.16 934.8 217.73 933.1 236.43 930.91 260.96 875.78 316.25 793.54 312.69 711.29 309.12 775 208.58 808.27 184.13 839.03 161.55 862.91 163.01 866.15 187.86 869.87 216.03 846.56 305.4 762.29 350.73" stroke="#231f20" stroke-width="4" stroke-linecap="round" stroke-linejoin="round" opacity="1" fill="none"></path></g><g><path d="M430.74 1044.84L389.32 911.89 615.3 843.12 430.74 1044.84Z" fill="#000000" opacity="0.2" stroke-width="4" stroke="none"></path><path d="M440.58 1011.89L399.16 878.94 625.14 810.17 440.58 1011.89Z" fill="#f6884d" opacity="1" stroke-width="4" stroke="none"></path></g><g><path d="M130.6 519.11L246.82 428.23 399.67 626.52 130.6 519.11Z" fill="#838383" opacity="0.2" stroke-width="4" stroke="none"></path><path d="M130.6 497.62L246.82 406.75 399.67 605.04 130.6 497.62Z" fill="#efdcd7" opacity="1" stroke-width="4" stroke="none"></path></g><g><path d="M1449.98 568.42L1358.94 519.45 1386.04 619.25 1400.2 586.53 1424.63 617.32 1439.38 605.67 1414.94 574.76 1449.98 568.42Z" fill="#ffc930" opacity="1" stroke-width="4" stroke="none"></path></g><g><path d="M1210.13 319.98L1256.5 291.74C1267.05 285.3 1280.85 288.6 1287.28 299.24L1315.52 345.61C1321.96 356.16 1318.66 369.95 1308.02 376.38L1261.65 404.63C1251.11 411.07 1237.31 407.76 1230.88 397.13L1202.64 350.76C1196.28 340.22 1199.58 326.43 1210.13 319.98Z" fill="#843b0b" opacity="1" stroke-width="4" stroke="none"></path><path d="M1242.97 342.32L1238.22 361.94" stroke="#000000" stroke-width="4" stroke-linecap="round" stroke-linejoin="round" opacity="1" fill="none"></path><path d="M1230.78 349.76L1250.4 354.51" stroke="#000000" stroke-width="4" stroke-linecap="round" stroke-linejoin="round" opacity="1" fill="none"></path><path d="M1273.97 323.41L1269.22 343.03" stroke="#000000" stroke-width="4" stroke-linecap="round" stroke-linejoin="round" opacity="1" fill="none"></path><path d="M1261.79 330.85L1281.49 335.61" stroke="#000000" stroke-width="4" stroke-linecap="round" stroke-linejoin="round" opacity="1" fill="none"></path><path d="M1263.13 366.21L1273.86 359.62" stroke="#000000" stroke-width="4" stroke-linecap="round" stroke-linejoin="round" opacity="1" fill="none"></path></g><g><path d="M1034.85 245.96C1066.45 245.96 1092.07 220.34 1092.07 188.73 1092.07 157.13 1066.45 131.51 1034.85 131.51 1003.24 131.51 977.62 157.13 977.62 188.73 977.62 220.34 1003.24 245.96 1034.85 245.96Z" fill="#3b3934" opacity="0.2" stroke-width="4" stroke="none"></path><path d="M1034.85 228.47C1066.45 228.47 1092.07 202.84 1092.07 171.24 1092.07 139.64 1066.45 114.02 1034.85 114.02 1003.24 114.02 977.62 139.64 977.62 171.24 977.62 202.84 1003.24 228.47 1034.85 228.47Z" fill="#ffc930" opacity="1" stroke-width="4" stroke="none"></path><path d="M1034.85 143.6V179.23" stroke="#3b3934" stroke-width="4" stroke-linecap="round" stroke-linejoin="round" opacity="1" fill="none"></path><path d="M1034.85 193.05V198.88" stroke="#3b3934" stroke-width="4" stroke-linecap="round" stroke-linejoin="round" opacity="1" fill="none"></path></g><g><path d="M1038.36 662.33C1030.46 629.85 1017.97 588.3 1000.12 552.02 998.46 548.6 996.51 545.29 994.37 542.16L978.96 590.44 974.86 644.09 980.91 699.68 977.4 726.6H990.17C1015.04 726.7 1047.91 708.66 1038.36 662.33Z" fill="#ffffff" opacity="1" stroke-width="4" stroke="none"></path><path d="M903.08 386.21C877.42 385.23 861.82 381.14 852.07 395.86 846.7 404.25 844.36 419.37 842.21 434.19 842.21 434.19 833.14 436.05 832.46 439.85 831.68 444.34 839.68 450.68 839.68 450.68 836.46 461.11 834.7 473.11 842.31 483.84 853.33 499.25 880.84 495.06 882.59 494.57L882.5 511.64 949.7 513.68C949.7 513.68 947.84 441.12 947.94 424.93 947.94 392.74 932.63 387.28 903.08 386.21Z" fill="#ac704e" opacity="1" stroke-width="4" stroke="none"></path><path d="M882.59 494.47L882.5 507.54 898.59 487.25C889.62 492.91 882.59 494.47 882.59 494.47Z" fill="#23211f" opacity="0.2" stroke-width="4" stroke="none"></path><path d="M949.79 494.86C934.09 493.79 923.46 489.11 917.41 485.4 910.78 481.4 910.01 480.28 908.48 478.7L909.94 477.55 910.25 477.35C910.85 476.92 931.56 463.55 924.83 446.78 922.97 442.29 919.56 439.75 914.39 438.97 913.41 438.88 912.44 438.78 911.37 438.78 901.52 438.78 888.64 444.63 888.54 444.73L888.45 444.83 888.39 444.87C888.25 444.63 882.59 433.22 881.01 421.99 880.94 421.71 878.59 422 876.45 422 875.67 422 875.08 422 874.5 421.91 872.06 421.52 870.4 420.54 869.43 418.88 867.67 415.66 869.04 411.18 868.62 410.05 868.45 409.52 867.18 409.52 866.01 409.52 863.38 409.52 860.94 409.32 858.8 409.03 852.75 408.06 847.87 405.03 847.87 405.03 849.04 401.13 850.6 397.91 852.16 395.47 861.72 380.94 877.42 374.02 899.86 374.02 901.32 374.02 902.88 374.02 904.44 374.11 919.46 374.7 931.17 379.28 939.36 387.77 947.75 396.55 952.04 408.93 952.04 424.83 951.94 436.05 950.96 473.4 950.28 494.67V494.86H949.79Z" fill="#221f1f" opacity="1" stroke-width="4" stroke="none"></path><path d="M691.04 556.01C670.65 544.8 625.69 522.46 602.28 514.66 596.23 512.61 596.23 527.73 603.35 531.73 598.28 530.75 569.12 526.36 560.34 531.63 554.78 534.95 560.15 540.7 560.15 540.7 557.9 540.7 549.52 544.51 554.78 553.38 541.13 569.96 586.29 572.5 592.24 575.33 587.16 576.5 562.78 579.42 562.78 583.42 562.78 589.96 576.73 591.13 604.23 589.47 627.45 599.61 637.39 596.98 643.15 596.59L655.14 610.24C669.19 598.34 691.04 556.01 691.04 556.01Z" fill="#ac704e" opacity="1" stroke-width="4" stroke="none"></path><path d="M848.65 458.87L858.02 457.31" stroke="#23211f" stroke-width="4" stroke-linecap="round" stroke-linejoin="round" opacity="1" fill="none"></path><path d="M882.59 494.57C887.37 492.91 891.57 490.47 895.57 488.33" stroke="#23211f" stroke-width="4" stroke-linecap="round" stroke-linejoin="round" opacity="1" fill="none"></path><path d="M897.71 461.31L906.39 456.14" stroke="#23211f" stroke-width="4" stroke-linecap="round" stroke-linejoin="round" opacity="1" fill="none"></path><path d="M854.41 436.93C856.13 436.93 857.53 435.52 857.53 433.8 857.53 432.08 856.13 430.68 854.41 430.68 852.69 430.68 851.29 432.08 851.29 433.8 851.29 435.52 852.69 436.93 854.41 436.93Z" fill="#000000" opacity="1" stroke-width="4" stroke="none"></path><path d="M560.83 540.02C578 541.19 594.97 544.31 611.45 549.09" stroke="#23211f" stroke-width="4" stroke-linecap="round" stroke-linejoin="round" opacity="1" fill="none"></path><path d="M603.16 531.14C603.16 531.14 616.62 534.85 621.5 536.9" stroke="#23211f" stroke-width="4" stroke-linecap="round" stroke-linejoin="round" opacity="1" fill="none"></path><path d="M556.44 553.09C556.44 553.09 583.07 557.28 605.3 564.3" stroke="#23211f" stroke-width="4" stroke-linecap="round" stroke-linejoin="round" opacity="1" fill="none"></path><path d="M851.48 522.76C844.95 525 838.31 527.73 832.07 530.75 798.91 546.65 777.35 563.13 748.09 587.42 748.09 587.42 723.81 572.3 690.94 555.92L655.24 610.15C677.19 632.68 716.4 664.37 746.05 664.37 788.57 664.37 823 640.09 823 640.09 872.84 606.63 861.62 544.51 851.48 522.76Z" fill="#ffffff" opacity="1" stroke-width="4" stroke="none"></path><path d="M982.86 651.21C982.86 651.21 1010.17 619.9 985.88 591.52 985.88 591.52 1000.02 578.45 994.27 542.16 985.69 528.9 967.25 518.27 956.13 515.44L956.23 503.64H876.06V515.34C866.4 516.9 860.45 519.54 851.19 522.66 861.33 544.31 870.99 606.15 823 639.99 826.02 644.19 829.15 647.79 833.05 651.01 810.81 680.37 839.09 699.58 839.09 699.58V700.17L980.81 699.58C980.91 699.88 1008.12 674.52 982.86 651.21Z" fill="#ffc930" opacity="1" stroke-width="4" stroke="none"></path><path d="M982.86 651.31H961.11C961.11 651.31 984.03 661.35 990.86 685.34 994.95 675.98 995.93 663.4 982.86 651.31Z" fill="#2e2c24" opacity="0.2" stroke-width="4" stroke="none"></path><path d="M992.71 634.33C997.2 622.73 998.85 606.73 985.88 591.61H930.58C930.58 591.61 986.56 597.08 992.71 634.33Z" fill="#2e2c24" opacity="0.2" stroke-width="4" stroke="none"></path><path d="M833.05 651.31H983.83" stroke="#2e2c24" stroke-width="4" stroke-linecap="round" stroke-linejoin="round" opacity="1" fill="none"></path><path d="M857.33 591.61H986.95" stroke="#2e2c24" stroke-width="4" stroke-linecap="round" stroke-linejoin="round" opacity="1" fill="none"></path><path d="M856.26 534.95H988.42" stroke="#2e2c24" stroke-width="4" stroke-linecap="round" stroke-linejoin="round" opacity="1" fill="none"></path><path d="M749.46 588.2C754.14 592 762.92 596.98 763.11 596.59" stroke="#202020" stroke-width="4" stroke-linecap="round" stroke-linejoin="round" opacity="1" fill="none"></path><path d="M1064.98 327.1C1062.15 321.25 1044.89 323.3 1023.34 331.39 1034.26 319.69 1039.72 309.64 1036.5 305.55 1031.92 299.6 1010.76 308.08 988.75 321.86 987.71 322.92 988.92 305.25 984.82 303.4 977.5 300.09 962.29 317.93 951.27 342.9 942 363.97 941.9 380.06 945.51 387.67 945.51 387.96 945.61 388.26 945.71 388.55 945.9 389.33 946.39 390.01 946.98 390.69 951.75 398.2 967.26 407.86 989.7 410.88 1017.2 414.49 1040.4 410.98 1041.38 402.89 1042.06 397.03 1030.46 389.33 1013.88 384.75 1040.31 376.06 1059.42 364.85 1057.18 356.95 1056.2 353.63 1051.72 351.58 1044.79 350.8 1059.03 341.15 1067.32 331.98 1064.98 327.1Z" fill="#221f1f" opacity="1" stroke-width="4" stroke="none"></path><path d="M952.55 416.18C962.68 411.15 965.77 396.74 959.44 384 953.11 371.27 939.78 365.02 929.64 370.06 919.51 375.09 916.43 389.49 922.75 402.22 929.08 414.96 942.42 421.21 952.55 416.18Z" fill="#843b0b" opacity="1" stroke-width="4" stroke="none"></path><path d="M986.95 378.99C989.3 379.28 991.64 379.67 993.98 379.97 1001.1 381.04 1008.51 382.7 1015.43 384.75" stroke="#7e7c7c" stroke-width="4" stroke-linecap="round" stroke-linejoin="round" opacity="1" fill="none"></path><path d="M1006.66 338.51C1012.9 335.49 1019.14 332.95 1024.9 330.81" stroke="#7e7c7c" stroke-width="4" stroke-linecap="round" stroke-linejoin="round" opacity="1" fill="none"></path><path d="M981.88 361.92C986.66 360.07 991.83 358.51 997.1 356.95 1016.31 351.49 1034.16 349.44 1045.28 350.9" stroke="#7e7c7c" stroke-width="4" stroke-linecap="round" stroke-linejoin="round" opacity="1" fill="none"></path><path d="M886.01 651.31C886.01 651.31 851.97 643.01 850.11 608.59 844.36 620.09 836.17 631.21 823 640.09 826.02 644.28 829.15 648.09 833.05 651.31 810.81 680.66 839.09 699.49 839.09 699.49V699.88H857.14C857.14 699.97 851.77 668.28 886.01 651.31Z" fill="#2e2c24" opacity="0.2" stroke-width="4" stroke="none"></path><path d="M643.25 596.59L655.14 610.15C663.24 618.44 673.68 627.9 685.09 636.77 666.46 607.22 662.46 599.32 662.46 599.32 658.46 601.95 643.25 596.59 643.25 596.59Z" fill="#202020" opacity="0.2" stroke-width="4" stroke="none"></path><path d="M894.88 1008.86L895.37 1000.48C894.01 988.48 892.25 976.78 890.1 965.66L885.03 950.34 782.43 951.9 784.86 965.66C787.6 974.63 789.35 982.63 790.03 988.87L817.25 1042.22 894.88 1008.86Z" fill="#a4633d" opacity="1" stroke-width="4" stroke="none"></path><path d="M953.6 755.67C946.38 724.07 934.68 704.17 934.68 704.17L931.17 708.36C931.17 708.36 795.79 723.48 754.24 772.83 720.39 813.02 767.89 910.84 784.67 965.66H890.1C881.03 918.26 865.82 875.73 847.68 839.74H871.86C937.9 839.74 963.55 799.17 953.6 755.67Z" fill="#843b0b" opacity="1" stroke-width="4" stroke="none"></path><path d="M754.24 772.83C723.03 809.99 761.26 896.31 780.38 952.59 780.38 952.59 785.55 924.89 810.22 897.29 833.73 870.95 859.38 865 859.38 865 855.77 856.52 851.68 847.74 847.68 839.84L754.24 772.83Z" fill="#0d0c0c" opacity="0.2" stroke-width="4" stroke="none"></path><path d="M784.67 965.66H890.1" stroke="#000000" stroke-width="4" stroke-linecap="round" stroke-linejoin="round" opacity="1" fill="none"></path><path d="M754.82 1057.73C765.85 1039.49 790.13 1034.91 790.33 997.94 790.33 995.89 790.33 993.65 790.13 991.41 790.03 990.43 789.94 989.55 789.84 988.48H814.22C822.9 988.48 829.44 996.19 828.07 1004.77L824.27 1028.66C824.27 1028.66 851.09 1002.23 895.37 1000.28 896.35 1008.18 897.03 1016.28 897.61 1024.57 897.81 1027.59 898 1030.81 898.2 1033.83 898.59 1041.54 898.98 1049.54 899.08 1057.63V1057.73L898.2 1060.46 754.92 1058.31V1057.73H754.82Z" fill="#efdcd7" opacity="1" stroke-width="4" stroke="none"></path><path d="M754.82 1057.83H898.98C899.08 1064.56 898.98 1071.38 898.78 1078.41H749.56C749.56 1072.85 750.44 1068.17 751.8 1064.17 752.68 1061.83 753.65 1059.78 754.82 1057.83Z" fill="#ffc930" opacity="1" stroke-width="4" stroke="none"></path><path d="M787.01 1017.55L803.49 1024.47" stroke="#ffffff" stroke-width="4" stroke-linecap="round" stroke-linejoin="round" opacity="1" fill="none"></path><path d="M779.31 1030.22L793.35 1040.76" stroke="#ffffff" stroke-width="4" stroke-linecap="round" stroke-linejoin="round" opacity="1" fill="none"></path><path d="M824.27 1028.76L818.61 1055.78" stroke="#ffffff" stroke-width="4" stroke-linecap="round" stroke-linejoin="round" opacity="1" fill="none"></path><path d="M758.92 963.71L666.65 916.11 663.73 927.23C661.39 939.42 659.34 949.17 658.07 952.29L663.73 1013.06H737.85L747.8 1008.08C752.09 996.38 755.8 984.87 758.92 973.46V963.71Z" fill="#a4633d" opacity="1" stroke-width="4" stroke="none"></path><path d="M985.39 736.55L978.37 703.78 857.14 712.95 839.09 718.12C839.09 718.12 742.34 725.92 714.06 757.81 687.33 787.95 682.65 826.57 671.82 883.83 668.9 899.14 666.17 914.65 663.73 927.13L758.92 973.56C775.5 911.14 776.96 879.92 776.87 839.64L901.42 840.03C956.13 840.33 997 789.9 985.39 736.55Z" fill="#843b0b" opacity="1" stroke-width="4" stroke="none"></path><path d="M776.87 839.74H742.34C742.34 848.81 750.14 854.57 758.92 866.27 769.36 880.22 774.53 895.04 774.53 895.04 776.67 875.73 776.96 858.76 776.87 839.74Z" fill="#0d0c0c" opacity="0.2" stroke-width="4" stroke="none"></path><path d="M663.83 927.13L759.02 973.65" stroke="#000000" stroke-width="4" stroke-linecap="round" stroke-linejoin="round" opacity="1" fill="none"></path><path d="M596.82 995.6C614.77 984.19 638.56 990.82 655.24 957.95 656.22 956.1 657.1 954.15 658.07 952L658.17 951.81 675.53 960.2C684.5 964.49 687.43 975.7 681.77 983.9L669.29 1001.74C669.29 1001.74 706.35 989.07 748 1008.18 745.36 1015.3 742.54 1022.52 739.51 1029.74 738.34 1032.66 737.07 1035.49 735.81 1038.51 732.78 1045.54 729.47 1052.75 725.95 1059.97 725.86 1060.17 723.81 1063.68 723.71 1063.87L596.33 996.09C596.43 995.89 596.53 995.79 596.82 995.6Z" fill="#efdcd7" opacity="1" stroke-width="4" stroke="none"></path><path d="M591.75 999.6C593.21 998.23 594.67 997.06 596.23 996.09L725.56 1060.65C722.64 1066.6 719.61 1072.46 716.4 1078.5L582.87 1011.79C585.51 1006.52 588.43 1002.62 591.75 999.6Z" fill="#ffc930" opacity="1" stroke-width="4" stroke="none"></path><path d="M641.78 974.83L653.19 988.67" stroke="#ffffff" stroke-width="4" stroke-linecap="round" stroke-linejoin="round" opacity="1" fill="none"></path><path d="M628.52 981.75L636.13 997.45" stroke="#ffffff" stroke-width="4" stroke-linecap="round" stroke-linejoin="round" opacity="1" fill="none"></path><path d="M669.19 1001.74L651.73 1023.01" stroke="#ffffff" stroke-width="4" stroke-linecap="round" stroke-linejoin="round" opacity="1" fill="none"></path><path d="M770.23 924.3C776.28 891.34 777.06 869 776.87 841.01" stroke="#000000" stroke-width="4" stroke-linecap="round" stroke-linejoin="round" opacity="1" fill="none"></path><path d="M980.91 699.29L839.09 699.88V718.12H981.79L980.91 699.29Z" fill="#2e2c24" opacity="1" stroke-width="4" stroke="none"></path><path d="M847.68 839.74H742.34" stroke="#000000" stroke-width="4" stroke-linecap="round" stroke-linejoin="round" opacity="1" fill="none"></path><path d="M885.52 752.64H940.43C940.43 752.64 941.7 797.61 914.49 797.02 887.28 796.44 885.52 752.64 885.52 752.64Z" fill="#0d0c0c" opacity="1" stroke-width="4" stroke="none"></path><path d="M979.54 790.39C984.81 778.88 987.64 766.01 987.35 752.74H966.08C966.08 752.64 967.06 777.9 979.54 790.39Z" fill="#0d0c0c" opacity="1" stroke-width="4" stroke="none"></path></g><g><path d="M954.73 841.52H927.23V1024.4H954.73V841.52Z" fill="#231f20" opacity="1" stroke-width="4" stroke="none"></path><path d="M1055.39 665.08H949.86C935.81 665.08 922.45 676.5 920.01 690.44L892.31 847.96H1048.66L1076.36 690.44C1078.8 676.5 1069.34 665.08 1055.39 665.08Z" fill="#f6884d" opacity="1" stroke-width="4" stroke="none"></path><path d="M872.9 1022.45H1009.55C1017.16 1022.45 1023.3 1028.69 1023.3 1036.2 1023.3 1043.81 1017.06 1049.95 1009.55 1049.95H872.9C865.3 1049.95 859.15 1043.71 859.15 1036.2 859.15 1028.59 865.39 1022.45 872.9 1022.45Z" fill="#f6884d" opacity="1" stroke-width="4" stroke="none"></path><path d="M872.9 1077.46C880.5 1077.46 886.66 1071.3 886.66 1063.71 886.66 1056.11 880.5 1049.95 872.9 1049.95 865.31 1049.95 859.15 1056.11 859.15 1063.71 859.15 1071.3 865.31 1077.46 872.9 1077.46Z" fill="#231f20" opacity="1" stroke-width="4" stroke="none"></path><path d="M941.27 1077.46C948.87 1077.46 955.03 1071.3 955.03 1063.71 955.03 1056.11 948.87 1049.95 941.27 1049.95 933.68 1049.95 927.52 1056.11 927.52 1063.71 927.52 1071.3 933.68 1077.46 941.27 1077.46Z" fill="#231f20" opacity="1" stroke-width="4" stroke="none"></path><path d="M1009.65 1077.46C1017.24 1077.46 1023.4 1071.3 1023.4 1063.71 1023.4 1056.11 1017.24 1049.95 1009.65 1049.95 1002.05 1049.95 995.89 1056.11 995.89 1063.71 995.89 1071.3 1002.05 1077.46 1009.65 1077.46Z" fill="#231f20" opacity="1" stroke-width="4" stroke="none"></path><path d="M899.24 808.17L892.22 847.96H1048.56L1051.49 830.99 899.24 808.17Z" fill="#000000" opacity="0.2" stroke-width="4" stroke="none"></path><path d="M775.56 837.13H915.23C922.84 837.13 928.99 843.38 928.99 850.89 928.99 858.49 922.74 864.64 915.23 864.64H775.56C767.96 864.64 761.81 858.4 761.81 850.89 761.81 843.38 768.05 837.13 775.56 837.13Z" fill="#f6884d" opacity="1" stroke-width="4" stroke="none"></path><path d="M893.58 837.13H1047.98C1055.58 837.13 1061.73 843.38 1061.73 850.89 1061.73 858.49 1055.49 864.64 1047.98 864.64H893.58C885.97 864.64 879.83 858.4 879.83 850.89 879.83 843.38 885.97 837.13 893.58 837.13Z" fill="#f6884d" opacity="1" stroke-width="4" stroke="none"></path><path d="M894.56 835.18H1049.93" stroke="#000000" stroke-width="4" stroke-linecap="round" stroke-linejoin="round" opacity="1" fill="none"></path></g></svg>